<svg xmlns="http://www.w3.org/2000/svg"
     width="3.49333in" height="1.03667in"
     viewBox="0 0 1048 311">
  <path id="Selection"
        fill="#dadffb" stroke="#dadffb" stroke-width="1"
        d="M 74.00,31.00
           C 74.00,31.00 117.00,9.75 117.00,9.75
             121.91,7.30 132.29,1.06 137.00,0.56
             143.89,-0.18 155.29,8.77 161.00,12.72
             161.00,12.72 180.00,24.95 180.00,24.95
             183.79,27.36 187.98,29.76 189.91,34.04
             191.72,38.04 190.08,50.56 189.00,55.00
             189.00,55.00 156.00,33.72 156.00,33.72
             150.72,30.03 143.65,24.18 137.00,24.18
             130.29,24.18 121.50,31.10 115.00,34.00
             115.00,34.00 164.00,66.81 164.00,66.81
             168.61,69.67 184.45,79.30 186.93,83.17
             189.19,87.51 187.53,93.34 186.93,98.00
             186.53,106.33 191.40,106.38 194.52,114.00
             199.53,126.26 191.36,139.97 178.00,140.90
             165.80,141.75 156.25,132.20 157.10,120.00
             157.38,115.97 158.86,112.19 161.39,109.04
             164.49,105.17 167.95,104.19 166.72,99.00
             164.28,88.66 149.47,81.36 141.00,76.05
             141.00,76.05 96.00,46.67 96.00,46.67
             90.26,42.84 78.08,35.66 74.00,31.00 Z
           M 208.00,31.00
           C 208.00,31.00 252.00,56.15 252.00,56.15
             264.21,63.16 271.97,63.31 272.00,79.00
             272.00,79.00 272.00,113.00 272.00,113.00
             272.00,117.78 272.66,124.90 270.15,128.98
             267.37,133.51 257.06,138.40 252.00,140.00
             252.00,140.00 252.00,101.00 252.00,101.00
             252.00,93.98 252.94,86.20 249.01,80.01
             245.70,74.81 233.88,68.86 228.00,67.00
             228.00,67.00 228.00,145.00 228.00,145.00
             228.00,147.40 228.13,150.77 227.26,152.98
             224.74,159.40 213.87,162.05 210.58,165.63
             208.80,167.58 208.36,171.31 207.08,174.00
             203.89,180.72 198.43,184.63 191.00,184.96
             175.68,185.63 165.67,172.21 171.48,158.00
             174.21,151.32 180.70,146.40 188.00,146.13
             196.80,145.81 199.69,151.91 205.91,141.00
             210.79,132.45 208.11,123.80 208.00,115.00
             208.00,115.00 208.00,31.00 208.00,31.00 Z
           M 341.00,43.00
           C 341.00,43.00 362.00,43.00 362.00,43.00
             362.00,43.00 362.00,104.00 362.00,104.00
             362.00,104.00 417.00,104.00 417.00,104.00
             433.95,104.00 449.48,103.49 462.91,116.18
             477.05,129.55 476.00,144.45 476.00,162.00
             476.00,162.00 476.00,221.00 476.00,221.00
             475.97,241.95 464.75,258.92 444.00,264.51
             432.65,267.57 415.93,267.00 404.00,267.00
             404.00,267.00 341.00,267.00 341.00,267.00
             341.00,267.00 341.00,43.00 341.00,43.00 Z
           M 525.00,43.00
           C 525.00,43.00 547.00,43.00 547.00,43.00
             547.00,43.00 547.00,81.00 547.00,81.00
             547.00,81.00 525.00,81.00 525.00,81.00
             525.00,81.00 525.00,43.00 525.00,43.00 Z
           M 599.00,43.00
           C 599.00,43.00 620.00,43.00 620.00,43.00
             620.00,43.00 620.00,104.00 620.00,104.00
             620.00,104.00 675.00,104.00 675.00,104.00
             693.12,104.00 709.19,103.48 722.83,118.04
             735.27,131.32 734.00,144.42 734.00,161.00
             734.00,161.00 734.00,222.00 734.00,222.00
             733.97,242.34 722.10,259.36 702.00,264.52
             689.37,267.77 674.07,267.00 661.00,267.00
             661.00,267.00 599.00,267.00 599.00,267.00
             599.00,267.00 599.00,43.00 599.00,43.00 Z
           M 0.00,154.00
           C 1.34,146.51 0.99,142.43 1.00,135.00
             1.00,135.00 3.00,99.00 3.00,99.00
             3.01,93.84 2.23,86.44 5.01,82.04
             7.76,77.69 13.51,75.49 18.00,73.25
             18.00,73.25 45.00,59.22 45.00,59.22
             49.40,56.89 53.77,53.78 59.00,54.23
             64.66,54.70 71.70,61.02 77.00,64.00
             77.00,64.00 77.00,66.00 77.00,66.00
             77.00,66.00 42.00,83.75 42.00,83.75
             35.91,86.80 28.07,89.90 24.56,96.04
             21.05,102.15 22.00,112.93 22.00,120.00
             22.00,120.00 52.00,104.78 52.00,104.78
             52.00,104.78 75.00,92.86 75.00,92.86
             79.93,90.13 96.24,81.10 101.00,81.20
             106.85,81.32 111.76,87.14 116.00,88.52
             120.77,90.07 125.50,85.67 133.00,87.79
             147.36,91.85 152.88,110.25 141.90,120.81
             134.31,128.12 120.43,128.02 113.39,119.90
             107.66,113.29 109.79,103.40 97.00,105.48
             90.33,106.57 72.68,116.81 66.00,120.58
             66.00,120.58 22.00,143.25 22.00,143.25
             16.20,146.15 5.28,152.49 0.00,154.00 Z
           M 980.00,56.00
           C 980.00,56.00 992.00,56.00 992.00,56.00
             992.00,56.00 992.00,104.00 992.00,104.00
             992.00,104.00 1039.00,104.00 1039.00,104.00
             1039.00,104.00 1039.00,122.00 1039.00,122.00
             1039.00,122.00 992.00,122.00 992.00,122.00
             992.00,122.00 992.00,217.00 992.00,217.00
             992.13,227.94 994.66,236.69 1004.00,243.36
             1013.72,250.31 1035.91,248.00 1048.00,248.00
             1048.00,248.00 1048.00,267.00 1048.00,267.00
             1030.15,267.00 1006.64,269.01 991.00,259.54
             979.29,252.45 971.17,239.87 971.00,226.00
             971.00,226.00 971.00,208.00 971.00,208.00
             971.00,208.00 971.00,122.00 971.00,122.00
             971.00,122.00 945.00,122.00 945.00,122.00
             945.00,122.00 945.00,104.00 945.00,104.00
             945.00,104.00 971.00,104.00 971.00,104.00
             971.00,104.00 980.00,56.00 980.00,56.00 Z
           M 127.00,95.51
           C 111.83,98.68 115.16,118.59 129.00,117.85
             137.73,117.38 142.32,107.12 137.28,100.11
             134.69,96.51 131.15,95.67 127.00,95.51 Z
           M 817.00,101.23
           C 817.00,101.23 846.00,101.23 846.00,101.23
             868.30,101.00 892.44,97.88 907.23,119.00
             916.83,132.72 915.00,145.30 915.00,161.00
             915.00,161.00 915.00,228.00 915.00,228.00
             914.93,233.22 914.12,237.10 912.29,242.00
             905.16,261.12 886.41,269.91 867.00,270.00
             867.00,270.00 854.00,270.00 854.00,270.00
             854.00,270.00 829.00,270.00 829.00,270.00
             822.85,269.99 816.94,269.25 811.00,267.57
             806.81,266.39 802.71,264.82 799.00,262.53
             779.35,250.41 780.00,232.03 780.00,212.00
             780.00,212.00 780.00,180.00 780.00,180.00
             780.00,180.00 780.00,156.00 780.00,156.00
             780.00,156.00 780.00,144.00 780.00,144.00
             780.07,128.95 787.62,114.68 801.00,107.31
             806.24,104.43 811.19,102.75 817.00,101.23 Z
           M 525.00,104.00
           C 525.00,104.00 547.00,104.00 547.00,104.00
             547.00,104.00 547.00,267.00 547.00,267.00
             547.00,267.00 525.00,267.00 525.00,267.00
             525.00,267.00 525.00,104.00 525.00,104.00 Z
           M 174.00,110.40
           C 169.78,111.76 167.03,113.50 165.65,118.00
             163.21,126.02 170.66,134.55 179.00,132.31
             192.22,128.76 189.90,108.63 174.00,110.40 Z
           M 824.00,119.15
           C 809.25,122.18 802.02,131.17 802.00,146.00
             802.00,146.00 802.00,224.00 802.00,224.00
             802.03,241.46 811.47,250.97 829.00,251.00
             829.00,251.00 859.00,251.00 859.00,251.00
             863.89,251.00 871.53,251.41 876.00,250.01
             883.27,247.74 890.01,241.32 892.22,234.00
             893.62,229.33 893.99,223.86 894.00,219.00
             894.00,219.00 894.00,150.00 894.00,150.00
             893.90,141.53 892.17,132.52 885.82,126.44
             876.24,117.27 865.12,119.00 853.00,119.15
             853.00,119.15 824.00,119.15 824.00,119.15 Z
           M 362.00,248.00
           C 362.00,248.00 427.00,248.00 427.00,248.00
             444.04,247.92 453.97,238.01 454.00,221.00
             454.00,221.00 454.00,159.00 454.00,159.00
             454.00,146.29 455.80,137.45 445.00,128.21
             439.24,123.28 431.37,122.09 424.00,122.00
             424.00,122.00 362.00,122.00 362.00,122.00
             362.00,122.00 362.00,248.00 362.00,248.00 Z
           M 620.00,248.00
           C 620.00,248.00 685.00,248.00 685.00,248.00
             702.33,247.92 711.97,238.32 712.00,221.00
             712.00,221.00 712.00,159.00 712.00,159.00
             712.00,147.99 713.53,137.87 704.70,129.47
             698.58,123.64 690.18,122.10 682.00,122.00
             682.00,122.00 620.00,122.00 620.00,122.00
             620.00,122.00 620.00,248.00 620.00,248.00 Z
           M 53.00,242.00
           C 53.00,242.00 53.00,219.00 53.00,219.00
             53.00,219.00 54.00,204.00 54.00,204.00
             54.00,204.00 54.00,188.00 54.00,188.00
             54.00,188.00 55.00,165.00 55.00,165.00
             55.00,162.08 54.84,158.77 56.01,156.04
             59.15,148.64 70.45,147.21 74.44,142.61
             76.37,140.39 76.73,137.08 78.41,134.00
             81.81,127.78 86.95,124.35 94.00,124.04
             107.25,123.46 115.65,131.68 114.96,145.00
             114.46,154.53 106.58,162.37 97.00,162.74
             92.67,162.91 87.75,160.32 84.00,161.78
             75.54,165.07 74.01,176.20 74.00,184.00
             74.00,184.00 74.00,203.00 74.00,203.00
             74.00,203.00 73.04,215.00 73.04,215.00
             73.04,215.00 73.04,231.00 73.04,231.00
             73.04,231.00 72.04,243.00 72.04,243.00
             72.04,243.00 72.04,258.00 72.04,258.00
             72.04,258.00 71.00,278.00 71.00,278.00
             71.00,278.00 31.00,253.42 31.00,253.42
             26.77,250.78 14.03,243.86 11.65,240.82
             8.49,236.79 8.98,231.80 9.00,227.00
             9.00,227.00 10.00,213.00 10.00,213.00
             10.00,213.00 10.00,191.00 10.00,191.00
             10.05,187.03 10.48,181.41 12.73,178.04
             15.59,173.79 26.03,169.42 31.00,168.00
             31.00,168.00 31.00,186.00 31.00,186.00
             31.00,186.00 30.00,202.00 30.00,202.00
             29.99,210.70 27.09,220.20 31.99,228.00
             35.72,233.93 46.55,239.21 53.00,242.00 Z
           M 93.00,132.39
           C 80.13,136.63 83.16,152.69 94.00,154.14
             106.87,155.87 111.60,138.81 100.96,133.17
             98.32,131.78 95.82,132.04 93.00,132.39 Z
           M 189.00,154.50
           C 185.07,155.23 182.12,156.42 179.93,160.04
             175.28,167.76 181.19,178.03 191.00,176.77
             204.24,175.08 204.48,155.33 189.00,154.50 Z
           M 282.00,153.00
           C 283.76,157.43 283.00,166.90 283.00,172.00
             283.00,172.00 282.32,208.00 282.32,208.00
             282.32,208.00 282.96,214.00 282.96,214.00
             283.12,218.18 282.78,222.42 280.30,225.96
             277.49,229.96 273.11,231.58 269.00,233.86
             269.00,233.86 246.00,246.80 246.00,246.80
             240.82,249.91 233.22,255.45 227.00,254.63
             222.45,254.04 212.48,247.18 209.00,244.00
             209.00,244.00 227.00,233.86 227.00,233.86
             227.00,233.86 246.00,223.58 246.00,223.58
             252.43,219.94 258.52,217.21 261.82,210.00
             264.47,203.44 262.06,195.03 261.82,188.00
             261.82,188.00 210.00,216.85 210.00,216.85
             205.65,219.33 190.88,228.23 187.00,228.76
             179.47,229.81 172.51,222.56 166.00,219.63
             161.13,217.73 158.95,219.93 154.00,219.63
             143.80,218.54 137.40,210.92 136.53,201.00
             135.46,188.85 146.13,179.39 158.00,180.70
             164.89,181.47 170.13,184.70 173.32,191.00
             176.43,197.16 173.97,203.24 183.00,204.66
             192.06,206.08 206.25,195.82 214.00,191.20
             214.00,191.20 282.00,153.00 282.00,153.00 Z
           M 173.00,275.00
           C 166.36,272.90 158.15,266.94 152.00,263.20
             152.00,263.20 115.00,240.80 115.00,240.80
             110.28,237.97 100.17,233.24 98.51,227.96
             97.91,226.06 98.00,223.04 98.00,221.00
             98.00,221.00 98.00,213.00 98.00,213.00
             98.08,200.43 90.90,202.53 90.10,191.00
             89.34,180.19 96.92,170.53 108.00,170.04
             118.71,169.57 128.04,175.74 128.91,187.00
             129.29,191.95 128.32,196.89 125.35,200.96
             122.34,205.10 117.17,206.97 118.65,213.00
             121.27,223.61 136.25,230.21 145.00,235.40
             145.00,235.40 189.00,262.00 189.00,262.00
             194.44,265.28 210.13,274.47 214.00,278.00
             214.00,278.00 170.00,301.78 170.00,301.78
             165.17,304.35 156.98,310.15 152.00,310.78
             146.08,311.53 140.77,307.96 136.00,304.95
             136.00,304.95 111.00,289.60 111.00,289.60
             106.73,287.07 100.73,284.44 98.16,279.96
             95.74,275.19 97.28,263.42 98.16,258.00
             98.16,258.00 131.00,277.69 131.00,277.69
             136.36,281.14 143.89,287.17 150.42,287.15
             158.28,287.12 163.91,280.33 173.00,277.00
             173.00,277.00 173.00,275.00 173.00,275.00 Z
           M 107.00,178.40
           C 102.12,179.98 98.96,182.54 98.42,188.00
             97.72,195.09 104.79,202.22 112.00,200.31
             125.07,196.85 123.33,176.58 107.00,178.40 Z
           M 152.04,189.51
           C 138.14,195.88 146.61,215.37 160.00,210.40
             167.36,207.66 169.21,197.66 163.77,192.23
             160.30,188.75 156.54,188.71 152.04,189.51 Z" />
</svg>